<?xml version="1.0" encoding="utf-8"?>
<!-- Generator: Adobe Illustrator 21.0.2, SVG Export Plug-In . SVG Version: 6.00 Build 0)  -->
<svg version="1.1" id="Layer_1" xmlns="http://www.w3.org/2000/svg" xmlns:xlink="http://www.w3.org/1999/xlink" x="0px" y="0px"
	 viewBox="0 0 260 87.5" style="enable-background:new 0 0 260 87.5;" xml:space="preserve">
<style type="text/css">
	.st0{fill:#00E4AC;}

	#left {
		animation: left 2s infinite;
	}

	#right {
		animation: right 2s infinite;
	}

	@keyframes left {
		0% {
			transform: translateX(0);
		}
		30% {
			transform: translateX(-10px);
		}
		50% {
			transform: translateX(5px);
		}
		80% {
			transform: translateX(5px);
		}
		100% {
			transform: translateX(0);
		}
	}
	@keyframes right {
		0% {
			transform: translateX(0);
		}
		30% {
			transform: translateX(10px);
		}
		50% {
			transform: translateX(-5px);
		}
		80% {
			transform: translateX(-5px);
		}
		100% {
			transform: translateX(0);
		}
	}
</style>
<path id="right" class="st0" d="M175.1,6.9c-3.6-3.2-9.2-4.9-16.7-5l0,0h-0.7c0,0,0,0,0,0h-1.8v0h-9.1L98.4,86.6h11.6l42.6-74.4h6.5
	c3.4,0,6,0.8,7.7,2.4c1.7,1.6,2.5,3.7,2.5,6.5v29.9c0,2.7-0.8,4.9-2.5,6.5c-1.7,1.6-4.2,2.4-7.7,2.4h-26.4l-5.9,10.2h30.9
	c7.9,0,13.7-1.7,17.5-5c3.8-3.4,5.6-8.9,5.6-16.7V23.7C180.8,15.8,178.9,10.2,175.1,6.9z"/>
<path id="left" class="st0" d="M106.1,59.8h-11c-3.4,0-6-0.8-7.7-2.4c-1.7-1.6-2.5-3.7-2.5-6.5V21c0-2.7,0.8-4.9,2.5-6.5
	c1.7-1.6,4.2-2.4,7.7-2.4H132L137.9,2H96.4C88.6,2,82.7,3.6,79,7c-3.8,3.4-5.6,8.9-5.6,16.7v24.5c0,7.9,1.9,13.5,5.6,16.8
	c3.8,3.3,9.6,5,17.5,5h3.7L106.1,59.8z"/>
</svg>
