<?xml version="1.0" encoding="utf-8"?>
<!-- Generator: Adobe Illustrator 21.0.2, SVG Export Plug-In . SVG Version: 6.00 Build 0)  -->
<svg version="1.1" id="Layer_1" xmlns="http://www.w3.org/2000/svg" xmlns:xlink="http://www.w3.org/1999/xlink" x="0px" y="0px"
	 viewBox="0 0 580.5 118" style="enable-background:new 0 0 580.5 118;" xml:space="preserve">
<style type="text/css">
	.st0{fill:#FFFFFF;}
	.st1{fill:#00E4AC;}
</style>
<g>
	<path class="st0" d="M162.1,95c-7.9,0-13.7-1.6-17.4-5c-3.8-3.3-5.6-8.9-5.6-16.8V48.8c0-7.8,1.9-13.3,5.6-16.7
		c3.8-3.3,9.6-5,17.4-5h17.5v10.2h-18.9c-3.4,0-6,0.8-7.7,2.4c-1.7,1.6-2.5,3.7-2.5,6.4V76c0,2.7,0.8,4.9,2.5,6.4
		c1.7,1.6,4.2,2.4,7.7,2.4h18.9V95H162.1z"/>
	<path class="st0" d="M233.7,90c-3.8,3.3-9.6,5-17.4,5h-4.5c-7.9,0-13.7-1.7-17.4-5c-3.8-3.3-5.6-8.9-5.6-16.7V48.8
		c0-7.8,1.9-13.3,5.6-16.7c3.8-3.3,9.6-5,17.4-5h4.5c7.9,0,13.7,1.7,17.4,5c3.8,3.3,5.6,8.9,5.6,16.7v24.4
		C239.3,81,237.5,86.6,233.7,90z M227.8,46.1c0-2.7-0.8-4.9-2.5-6.4c-1.7-1.6-4.2-2.4-7.7-2.4h-7.2c-3.4,0-6,0.8-7.7,2.4
		c-1.7,1.6-2.5,3.7-2.5,6.4V76c0,2.7,0.8,4.9,2.5,6.4c1.7,1.6,4.2,2.4,7.7,2.4h7.2c3.4,0,6-0.8,7.7-2.4c1.7-1.6,2.5-3.7,2.5-6.4
		V46.1z"/>
	<path class="st0" d="M289.1,95v-3.1c-3,2.1-6.6,3.1-10.9,3.1h-5.6c-7.9,0-13.7-1.6-17.4-5c-3.8-3.3-5.6-8.9-5.6-16.8V48.8
		c0-7.8,1.9-13.3,5.6-16.7c3.8-3.3,9.6-5,17.4-5h15.7V0h11.5v95H289.1z M283.9,84c1.1-0.5,2-1.2,2.7-1.9c0.7-0.7,1.2-1.5,1.4-2.4
		c0.3-0.9,0.4-1.7,0.4-2.3v-40h-17.1c-3.4,0-6,0.8-7.7,2.4c-1.7,1.6-2.5,3.7-2.5,6.4V76c0,2.7,0.8,4.9,2.5,6.4
		c1.7,1.6,4.2,2.4,7.7,2.4h8.3C281.3,84.8,282.7,84.5,283.9,84z"/>
	<path class="st0" d="M333.1,95c-7.9,0-13.7-1.6-17.4-5c-3.8-3.3-5.6-8.9-5.6-16.8V48.8c0-7.8,1.7-13.3,5-16.7c3.3-3.3,8.9-5,16.7-5
		h6.4c6.5,0,11.4,1.8,14.7,5.4c3.3,3.6,4.9,8.8,4.9,15.6v17.6h-36.1V76c0,2.7,0.8,4.9,2.5,6.4c1.7,1.6,4.2,2.4,7.7,2.4h21.6V95
		H333.1z M321.5,55.6h24.8V45.5c0-2.4-0.8-4.3-2.3-5.8c-1.5-1.5-3.5-2.3-5.8-2.3h-7.9c-3.4,0-5.8,0.8-7,2.4
		c-1.2,1.6-1.8,3.7-1.8,6.4V55.6z"/>
	<path class="st0" d="M367.4,118V27.1h10.9v3.3c1.5-1.2,3.2-2,5-2.5c1.8-0.5,3.8-0.7,5.8-0.7h4.9c7.9,0,13.7,1.7,17.4,5
		c3.8,3.3,5.6,8.9,5.6,16.8v24.4c0,7.8-1.9,13.3-5.6,16.7c-3.8,3.3-9.6,5-17.4,5H379V118H367.4z M383.5,38.1c-1.1,0.5-2,1.2-2.7,1.9
		c-0.7,0.7-1.2,1.5-1.4,2.4c-0.3,0.9-0.4,1.7-0.4,2.4v40h16.4c3.4,0,6-0.8,7.7-2.4c1.7-1.6,2.5-3.7,2.5-6.4V46.1
		c0-2.7-0.8-4.9-2.5-6.4c-1.7-1.6-4.2-2.4-7.7-2.4h-7.6C386.1,37.3,384.6,37.6,383.5,38.1z"/>
	<path class="st0" d="M472.5,90c-3.8,3.3-9.6,5-17.4,5h-4.5c-7.9,0-13.7-1.7-17.4-5c-3.8-3.3-5.6-8.9-5.6-16.7V48.8
		c0-7.8,1.9-13.3,5.6-16.7c3.8-3.3,9.6-5,17.4-5h4.5c7.9,0,13.7,1.7,17.4,5c3.8,3.3,5.6,8.9,5.6,16.7v24.4
		C478.2,81,476.3,86.6,472.5,90z M466.6,46.1c0-2.7-0.8-4.9-2.5-6.4c-1.7-1.6-4.2-2.4-7.7-2.4h-7.2c-3.4,0-6,0.8-7.7,2.4
		c-1.7,1.6-2.5,3.7-2.5,6.4V76c0,2.7,0.8,4.9,2.5,6.4c1.7,1.6,4.2,2.4,7.7,2.4h7.2c3.4,0,6-0.8,7.7-2.4c1.7-1.6,2.5-3.7,2.5-6.4
		V46.1z"/>
	<path class="st0" d="M522.4,90.9c-3.5,2.7-8.5,4.1-15.1,4.1h-20.2V84.8h21.6c5,0,7.5-2,7.5-6.1v-7.2c0-4.1-1.9-6.1-5.8-6.1h-5
		c-6.2,0-10.9-1.3-14.1-4c-3.2-2.7-4.7-7.1-4.7-13.2v-3.9c0-6.3,1.8-10.8,5.3-13.3c3.5-2.5,8.5-3.8,15.1-3.8H525v10.2h-19.5
		c-2.2,0-4,0.5-5.4,1.5c-1.4,1-2.1,2.5-2.1,4.6v4.9c0,2.2,0.7,3.7,2,4.7c1.3,0.9,2.8,1.4,4.5,1.4h4.6c6.1,0,10.7,1.5,13.8,4.4
		c3.2,2.9,4.7,7.3,4.7,13.1V78C527.7,83.9,525.9,88.2,522.4,90.9z"/>
	<path class="st0" d="M563,95c-4.8,0-8.4-1.5-10.7-4.5c-2.4-3-3.5-6.9-3.5-11.7V37.3h-12.9V27.1h12.9V10.9h11.5v16.3h19.8v10.2
		h-19.8v42.1c0,2.1,0.5,3.5,1.5,4.3c1,0.8,2.5,1.2,4.6,1.2h13.7V95H563z"/>
</g>
<g>
	<path class="st1" d="M32.8,84.9h-11c-3.4,0-6-0.8-7.7-2.4c-1.7-1.6-2.5-3.7-2.5-6.5V46.2c0-2.7,0.8-4.9,2.5-6.5
		c1.7-1.6,4.2-2.4,7.7-2.4h36.9l5.9-10.2H23.1c-7.9,0-13.7,1.7-17.5,5C1.9,35.5,0,41.1,0,48.9v24.5c0,7.9,1.9,13.5,5.6,16.8
		c3.8,3.3,9.6,5,17.5,5h3.7L32.8,84.9z"/>
	<path class="st1" d="M101.8,32.1c-3.6-3.2-9.2-4.9-16.7-5l0,0h-0.7c0,0,0,0,0,0h-1.8v0h-9.1L25,111.7h11.6l42.6-74.4h6.5
		c3.4,0,6,0.8,7.7,2.4c1.7,1.6,2.5,3.7,2.5,6.5v29.9c0,2.7-0.8,4.9-2.5,6.5c-1.7,1.6-4.2,2.4-7.7,2.4H59.3l-5.9,10.2h30.9
		c7.9,0,13.7-1.7,17.5-5c3.8-3.4,5.6-8.9,5.6-16.7V48.9C107.4,41,105.5,35.4,101.8,32.1z"/>
</g>
</svg>
